<?xml version="1.0" encoding="utf-8"?>
<!-- Generator: Adobe Illustrator 18.1.0, SVG Export Plug-In . SVG Version: 6.00 Build 0)  -->
<svg version="1.1" id="Capa_1" xmlns="http://www.w3.org/2000/svg" xmlns:xlink="http://www.w3.org/1999/xlink" x="0px" y="0px"
	 viewBox="0 0 45 43.9" enable-background="new 0 0 45 43.9" xml:space="preserve">
<g>
	<g>
		<path fill="#FFFFFF" d="M35.3,33.4V15c0,0,0.1-4.2-4.5-5c0,0-1.8-0.3-3,0.8c0,0-0.2-3-1.6-4.1c0,0,2.9-3.7,8.3-3.9
			c0,0,7-0.7,9.5,6.5c0,0,0.6,3.5,0.7,4.9v19.1H35.3z"/>
		<polygon fill="#FFFFFF" points="9.1,33.4 -0.2,33.4 -0.2,5.5 9,-0.6 		"/>
		<path fill="#FFFFFF" d="M26.8,9.4c-2.4-7.3-9.9-6.5-9.9-6.5C13.6,3,11.5,4.3,9.5,5.4v5.5c2-1,3.9-0.8,3.9-0.8c5,0,5.1,5,5.1,5
			v18.5h9V14.3C27.5,12.9,26.8,9.4,26.8,9.4z"/>
	</g>
	<g>
		<path fill="#FFFFFF" d="M7.7,34.7v8.2H5.4v-5.7l-1.6,5.7H2.5l-1.6-5.6v5.6H0.1v-8.2h2.4l1.4,4.9l1.4-4.9H7.7z"/>
		<path fill="#FFFFFF" d="M12.4,34.5c2.4,0,3.6,1.4,3.6,4.2c0,2.8-1.2,4.2-3.6,4.2c-2.4,0-3.6-1.4-3.6-4.3
			C8.7,35.9,10,34.5,12.4,34.5z M12.4,35.2c-0.4,0-0.7,0.2-0.9,0.7c-0.2,0.5-0.2,1.4-0.2,2.8c0,1.4,0.1,2.3,0.2,2.8
			c0.2,0.5,0.5,0.7,0.9,0.7c0.4,0,0.7-0.2,0.9-0.7c0.2-0.5,0.2-1.4,0.2-2.8c0-1.4-0.1-2.3-0.2-2.8C13.1,35.4,12.8,35.2,12.4,35.2z"
			/>
		<path fill="#FFFFFF" d="M20.4,34.5c2.4,0,3.6,1.4,3.6,4.2c0,2.8-1.2,4.2-3.6,4.2c-2.4,0-3.6-1.4-3.6-4.3
			C16.7,35.9,17.9,34.5,20.4,34.5z M20.3,35.2c-0.4,0-0.7,0.2-0.9,0.7c-0.2,0.5-0.2,1.4-0.2,2.8c0,1.4,0.1,2.3,0.2,2.8
			c0.2,0.5,0.5,0.7,0.9,0.7c0.4,0,0.7-0.2,0.9-0.7c0.2-0.5,0.2-1.4,0.2-2.8c0-1.4-0.1-2.3-0.2-2.8C21,35.4,20.7,35.2,20.3,35.2z"/>
		<path fill="#FFFFFF" d="M25,42.8v-8.2h3.4c2.4,0,3.6,1.4,3.6,4.1c0,2.7-1.2,4.1-3.7,4.1H25z M27.3,42.1H28c0.6,0,1-0.2,1.2-0.7
			c0.2-0.5,0.3-1.4,0.3-2.7c0-1.3-0.1-2.2-0.3-2.7c-0.2-0.5-0.6-0.7-1.2-0.7h-0.6V42.1z"/>
		<path fill="#FFFFFF" d="M35.4,34.7V42h3.4v0.8H33v-8.2H35.4z"/>
		<path fill="#FFFFFF" d="M44.5,34.7v0.8h-2.9v2.5H44v0.8h-2.5V42H45v0.8h-5.8v-8.2H44.5z"/>
	</g>
</g>
</svg>
